<?xml version="1.0" encoding="UTF-8"?>
<svg width="36px" height="35px" viewBox="0 0 36 35" version="1.1" xmlns="http://www.w3.org/2000/svg" xmlns:xlink="http://www.w3.org/1999/xlink">
    <!-- Generator: Sketch 41.2 (35397) - http://www.bohemiancoding.com/sketch -->
    <title>Combined Shape</title>
    <desc>Created with Sketch.</desc>
    <defs></defs>
    <g id="Page-1" stroke="none" stroke-width="1" fill="none" fill-rule="evenodd">
        <g id="Picker-Logo-效果图" transform="translate(-435.000000, -71.000000)" fill="#e0e1e2">
            <g id="light" transform="translate(428.365843, 66.000000)">
                <path d="M34.486272,17.9762801 C34.486272,12.1899059 29.7954888,7.49912275 24.0091146,7.49912275 C18.2227404,7.49912275 13.5319572,12.1899059 13.5319572,17.9762801 C13.5319572,21.7610558 15.5542198,25.1916646 18.7719748,27.0529402 C19.5873582,27.5245899 19.8660094,28.5679364 19.3943597,29.3833198 C18.92271,30.1987031 17.8793635,30.4773544 17.0639801,30.0057046 C12.8026248,27.5407697 10.1207897,22.9912483 10.1207897,17.9762801 C10.1207897,10.3059701 16.3388046,4.08795524 24.0091146,4.08795524 C31.6794246,4.08795524 37.8974395,10.3059701 37.8974395,17.9762801 C37.8974395,27.866943 29.879473,35.8849096 19.98881,35.8849096 C19.2198727,35.8849096 18.4565118,35.8363499 17.7019228,35.7400785 C16.7675288,35.6208673 16.1066925,34.7667516 16.2259036,33.8323575 C16.3451148,32.8979635 17.1992305,32.2371272 18.1336246,32.3563383 C18.7451279,32.4343547 19.3642994,32.473742 19.98881,32.473742 C27.9955372,32.473742 34.486272,25.9830072 34.486272,17.9762801 Z M17.7448972,39.7916823 C18.4871998,39.8671997 19.235826,39.9052141 19.98881,39.9052141 C23.8905035,39.9052141 27.6471865,38.8833653 30.9532666,36.9711917 C31.7686705,36.4995776 32.0473673,35.4562433 31.5757532,34.6408394 C31.1041392,33.8254354 30.0608049,33.5467386 29.2454009,34.0183527 C26.4550106,35.6322611 23.2867778,36.4940466 19.98881,36.4940466 C19.35118,36.4940466 18.7177846,36.4618835 18.090147,36.3980314 C17.1530162,36.3026933 16.3160348,36.9851011 16.2206967,37.9222319 C16.1253586,38.8593628 16.8077664,39.6963442 17.7448972,39.7916823 Z M21.0312262,43.9049381 C23.2613163,43.8167328 25.4479177,43.4456808 27.5513981,42.8057675 C28.4525872,42.5316109 28.9608975,41.5788051 28.686741,40.677616 C28.4125845,39.776427 27.4597786,39.2681167 26.5585896,39.5422732 C24.7330174,40.0976422 22.8347194,40.419771 20.8964119,40.4964357 C19.95518,40.5336636 19.2223399,41.3268621 19.2595679,42.268094 C19.2967958,43.209326 20.0899943,43.942166 21.0312262,43.9049381 Z" id="Combined-Shape" transform="translate(24.009115, 23.997126) rotate(45.000000) translate(-24.009115, -23.997126) "></path>
            </g>
        </g>
    </g>
</svg>