<svg id="icon-app" xmlns="http://www.w3.org/2000/svg" viewBox="0 0 40 40"><style>.st0{fill:#ced0d6}.st1{fill:#a5c5e5}.st2{fill:#e1ebf5}.st3{fill:#fff}</style><path id="shape" class="st0" d="M7 4h8c1.7 0 3 1.3 3 3v8c0 1.7-1.3 3-3 3H7c-1.7 0-3-1.3-3-3V7c0-1.7 1.3-3 3-3zm18 18h8c1.7 0 3 1.3 3 3v8c0 1.7-1.3 3-3 3h-8c-1.7 0-3-1.3-3-3v-8c0-1.7 1.3-3 3-3zM7 6h8c.6 0 1 .4 1 1v8c0 .6-.4 1-1 1H7c-.6 0-1-.4-1-1V7c0-.6.4-1 1-1zm18 18h8c.6 0 1 .4 1 1v8c0 .6-.4 1-1 1h-8c-.6 0-1-.4-1-1v-8c0-.6.4-1 1-1zm4-21c4.4 0 8 3.6 8 8s-3.6 8-8 8-8-3.6-8-8 3.6-8 8-8zm0 2c3.3 0 6 2.7 6 6s-2.7 6-6 6-6-2.7-6-6 2.7-6 6-6z"/><path id="riangle" class="st1" d="M11 24c-.7 0-1.3.4-1.7.9l-4.9 8c-.4.7-.4 1.4-.1 2.1.3.6 1 1 1.7 1h9.9c.7 0 1.4-.4 1.7-1 .3-.6.3-1.4-.1-2l-4.9-8c-.3-.6-.9-1-1.6-1zm0 2l4.9 8H6.1l4.9-8"/><path id="riangle-color" class="st2" d="M11 26l4.9 8H6.1l4.9-8"/><path id="color-white" class="st3" d="M7 6h8c.6 0 1 .4 1 1v8c0 .6-.4 1-1 1H7c-.6 0-1-.4-1-1V7c0-.6.4-1 1-1zm18 18h8c.6 0 1 .4 1 1v8c0 .6-.4 1-1 1h-8c-.6 0-1-.4-1-1v-8c0-.6.4-1 1-1zm4-19c3.3 0 6 2.7 6 6s-2.7 6-6 6-6-2.7-6-6 2.7-6 6-6z"/></svg>